HIERARCHY
ROOT Hips
{
  OFFSET 0 0 0
  CHANNELS 6 Xposition Yposition Zposition Zrotation Yrotation Xrotation
  JOINT LeftThigh
  {
    OFFSET 8.409438 0 -5.917753
    CHANNELS 3 Zrotation Yrotation Xrotation
    JOINT LeftLeg
    {
      OFFSET 0 0 -42.358652
      CHANNELS 3 Zrotation Yrotation Xrotation
      JOINT LeftFoot
      {
        OFFSET 0 0 -39.357303
        CHANNELS 3 Zrotation Yrotation Xrotation
      }
    }
  }
  JOINT RightThigh
  {
    OFFSET -8.409438 0 -5.917753
    CHANNELS 3 Zrotation Yrotation Xrotation
    JOINT RightLeg
    {
      OFFSET 0 0 -42.358652
      CHANNELS 3 Zrotation Yrotation Xrotation
      JOINT RightFoot
      {
        OFFSET 0 0 -39.357303
        CHANNELS 3 Zrotation Yrotation Xrotation
      }
    }
  }
  JOINT SpineLow
  {
    OFFSET 0 0 4.719101
    CHANNELS 3 Zrotation Yrotation Xrotation
    JOINT SpineMid
    {
      OFFSET 0 0 12.899191
      CHANNELS 3 Zrotation Yrotation Xrotation
      JOINT Chest
      {
        OFFSET 0 0 12.899191
        CHANNELS 3 Zrotation Yrotation Xrotation
        JOINT LeftShoulder
        {
          OFFSET 7.550562 1.41573 9.438202
          CHANNELS 3 Zrotation Yrotation Xrotation
          JOINT LeftArm
          {
            OFFSET 9.155056 0 4.247191
            CHANNELS 3 Zrotation Yrotation Xrotation
            JOINT LeftForearm
            {
              OFFSET 0 0 25.771955
              CHANNELS 3 Zrotation Yrotation Xrotation
              JOINT LeftHand
              {
                OFFSET 0 0 25.197169
                CHANNELS 3 Zrotation Yrotation Xrotation
              }
            }
          }
        }
        JOINT RightShoulder
        {
          OFFSET -7.550562 1.41573 9.438202
          CHANNELS 3 Zrotation Yrotation Xrotation
          JOINT RightArm
          {
            OFFSET -9.155056 0 4.247191
            CHANNELS 3 Zrotation Yrotation Xrotation
            JOINT RightForearm
            {
              OFFSET 0 0 -25.771955
              CHANNELS 3 Zrotation Yrotation Xrotation
              JOINT RightHand
              {
                OFFSET 0 0 -25.197169
                CHANNELS 3 Zrotation Yrotation Xrotation
              }
            }
          }
        }
        JOINT Neck
        {
          OFFSET 0 0 15.101124
          CHANNELS 3 Zrotation Yrotation Xrotation
          JOINT Head
          {
            OFFSET 0 0 11.325843
            CHANNELS 3 Zrotation Yrotation Xrotation
            End Site
            {
              OFFSET 0 0 14.157303
            }
          }
        }
      }
    }
  }
}
MOTION
Frames: 11
Frame Time: 0.0
0.0  101.685394  0.0  -0.263487  12.350006  -122.074109  19.35628  -12.382923  -83.633756  0.463465  12.651084  51.442895  -8.17022  -15.393547  -2.280406  -27.337096  7.161151  -6.035314  17.258412  -2.36948  38.819413  6.921796  5.514157  8.424248  -4.487576  1.693392  4.802938  -11.899352  5.478242  12.788806  -11.899352  5.478242  12.788806  0.640336  30.456801  14.395462  -152.242603  49.322533  -119.881084  -62.902508  -23.667035  95.496979  47.77553  4.948318  -21.305181  24.379629  -2.298469  27.967567  116.173706  62.696077  56.042667  -17.36048  -1.132357  -117.166134  56.122235  1.824457  15.048614  6.148226  4.016012  1.968892  4.596382  3.032206  1.435774  
0.0  101.685394  0.0  -0.493381  11.678326  -122.12757  20.450626  -11.606064  -83.1708  1.881165  10.893873  58.325601  -11.54652  -14.957348  -3.394983  -28.568243  6.355795  -6.163875  15.522577  0.130971  39.584046  11.138925  6.231399  8.141088  -4.507778  1.541756  4.789352  -11.982234  5.068384  12.774393  -11.982233  5.068384  12.774393  1.128835  31.446956  13.921712  -153.380534  49.872152  -120.749442  -62.720932  -25.726494  95.103752  48.359501  4.413432  -20.248554  24.831779  -2.003133  28.50128  112.952187  63.984295  53.755144  -17.759887  -1.120251  -116.639894  56.124014  1.824298  15.562557  6.640143  4.254842  1.720652  4.965866  3.210294  1.243762  
0.0  101.685394  0.0  -0.149478  10.576772  -122.247947  22.212755  -11.355397  -83.222243  2.43609  11.366682  64.826524  -12.070129  -14.547545  -3.859536  -28.968214  6.344379  -6.34999  14.232431  2.744464  39.79238  15.033748  5.795812  8.094217  -4.420287  1.478686  4.874879  -11.747697  4.895594  13.025259  -11.747697  4.895594  13.02526  1.493455  32.300471  13.222932  -154.055062  50.382036  -121.013201  -62.362818  -27.199471  94.594363  48.846403  3.992322  -19.344482  25.221622  -1.616724  28.418123  109.365683  65.057517  50.92394  -17.59297  -1.308965  -116.644606  56.560327  1.908717  17.006553  6.987095  4.478104  1.207148  5.228815  3.372907  0.853738  
0.0  101.685394  0.0  0.506814  9.721894  -122.425069  22.732878  -13.255585  -83.403366  5.373641  11.263902  71.289835  -12.08153  -13.869304  -4.0284  -28.401026  6.902751  -6.285941  12.266072  5.763645  39.521986  19.210372  4.627865  8.022791  -4.273829  1.519533  5.176993  -11.315502  5.028555  13.85573  -11.315502  5.028554  13.85573  0.894933  32.378616  11.21276  -154.67882  50.752396  -121.154023  -61.851555  -28.014693  93.980287  49.18714  3.664058  -18.570954  25.197014  -1.101664  26.871758  105.330662  65.901229  47.379102  -17.5682  -1.610405  -115.892395  56.425869  1.932991  17.356098  7.147498  4.458888  0.115115  5.357072  3.346053  0.034053  
0.0  101.685394  0.0  1.363234  9.572135  -122.467051  21.690756  -17.240788  -83.21814  10.380944  11.355722  77.608489  -10.721727  -12.820738  -4.40924  -27.607967  8.029455  -6.208088  11.049624  7.24002  39.160968  21.287857  3.570374  7.798933  -4.065282  1.666188  5.521109  -10.687569  5.437411  14.792482  -10.687569  5.437411  14.792482  -0.552585  31.529148  9.086133  -155.397689  50.900645  -121.31374  -61.379942  -28.278846  93.329097  49.419599  3.358203  -17.834774  24.383136  -0.955116  24.60598  100.594897  66.350238  43.037672  -17.201917  -2.04459  -115.24508  56.180518  2.044981  17.752935  6.742809  4.093394  -1.057185  5.062061  3.058839  -0.837906  
0.0  101.685394  0.0  2.167252  9.782689  -122.268357  19.433604  -21.839823  -82.228591  16.194367  12.182908  83.086611  -7.796039  -11.718107  -4.659134  -26.973383  9.361167  -6.313625  10.693615  7.206372  38.653105  21.562848  2.622905  7.794751  -3.879546  1.855972  5.58769  -10.135686  5.920983  14.966637  -10.135686  5.920983  14.966637  -1.111149  30.419795  8.775609  -156.468019  50.863673  -121.92813  -61.10205  -28.207258  92.770796  49.659364  3.050606  -17.105733  23.427393  -1.475395  23.643032  95.834501  66.416023  38.54887  -16.801421  -2.545174  -114.541069  55.988518  2.281576  18.481933  6.313078  3.472966  -1.306851  4.740817  2.591572  -1.015882  
0.0  101.685394  0.0  2.600702  10.440353  -122.114134  16.640149  -25.766178  -80.346035  21.718895  13.612262  87.66927  -4.336857  -10.699075  -4.660025  -26.791253  10.530716  -6.311815  11.177175  5.630425  38.239022  20.149201  2.309142  7.949797  -3.717349  2.040294  5.470063  -9.667397  6.368235  14.63852  -9.667397  6.368235  14.63852  -1.254202  29.067422  9.904958  -157.963096  50.645248  -123.079462  -61.094815  -28.031672  92.394845  50.023582  2.77975  -16.364677  22.497609  -2.688306  23.949612  91.090593  66.394069  34.278999  -16.48579  -3.075315  -113.834395  55.873981  2.571265  19.387873  5.758034  2.675585  -0.829101  4.321381  1.999094  -0.647008  
0.0  101.685394  0.0  2.605604  11.321503  -121.559593  14.546015  -28.3809  -79.053162  26.242607  15.073538  92.23675  -1.44751  -9.76455  -4.555949  -27.160197  11.165085  -6.58984  12.396711  3.020623  37.828043  17.587734  2.623287  8.177496  -3.664925  2.123345  5.244675  -9.531704  6.550989  14.01758  -9.531704  6.550989  14.01758  -1.169697  27.962303  11.176885  -159.861616  50.360559  -124.706784  -61.31061  -27.954082  92.158885  50.548195  2.507212  -15.593354  21.543821  -3.666149  24.542148  87.175125  66.177253  30.521569  -16.421791  -3.500229  -113.053168  55.868886  2.831623  20.306903  5.31469  2.042714  -0.239712  3.986397  1.530089  -0.197554  
0.0  101.685394  0.0  2.344688  12.248479  -120.831117  13.4966  -29.807057  -78.439925  29.497195  16.154943  97.147211  0.324601  -8.872967  -4.47114  -27.7562  11.396006  -6.935747  13.969811  0.184791  37.340077  14.609715  3.160823  8.390172  -3.753434  2.108104  5.026105  -9.799417  6.496857  13.412104  -9.799417  6.496857  13.412104  -1.054848  27.368749  11.812495  -161.88551  50.076378  -126.637103  -61.69524  -28.167684  91.97207  51.14014  2.174757  -14.784413  21.131532  -4.120812  24.975837  83.848736  65.911246  27.246005  -16.743021  -3.68943  -112.094038  56.065182  2.988352  21.045071  5.182083  1.747474  0.122784  3.88591  1.311758  0.077265  
0.0  101.685394  0.0  1.973684  13.076232  -120.080768  12.460119  -30.598885  -77.547559  31.663317  15.982401  101.820457  0.758925  -7.977018  -4.519482  -28.234433  11.33788  -7.312846  15.232688  -1.912685  36.835699  12.084355  3.569263  8.469848  -3.894364  2.01267  4.885468  -10.216104  6.244811  13.025044  -10.216104  6.244811  13.025043  -1.120317  27.205231  11.629689  -164.155565  49.911138  -128.813371  -62.219136  -28.635189  91.812074  51.694913  1.779181  -13.957416  20.963  -4.062153  24.975456  80.9134  65.646635  24.25848  -17.485269  -3.558276  -110.93764  56.451648  3.068969  21.32612  5.158961  1.722845  0.105728  3.868631  1.293136  0.064748  
0.0  101.685394  0.0  1.552708  13.717056  -119.385462  12.139711  -30.686894  -76.243697  32.144241  15.777449  106.210469  0.391414  -6.843326  -4.79755  -28.465405  11.027063  -7.700221  15.660184  -2.812493  36.428906  10.801983  3.732115  8.516315  -4.065874  1.877239  4.805188  -10.71624  5.897649  12.806986  -10.71624  5.897648  12.806987  -1.220862  27.208111  10.928131  -166.513503  49.706907  -131.083737  -62.83202  -29.22353  91.676587  52.09567  1.366384  -13.144091  21.098407  -3.804591  24.675772  78.29253  65.391367  21.594012  -18.32755  -3.140733  -109.72449  56.988506  3.1281  21.256879  5.304798  1.840101  -0.172705  3.978777  1.3787  -0.145508  
